<?xml version="1.0" encoding="UTF-8"?>
<!DOCTYPE svg PUBLIC "-//W3C//DTD SVG 1.1//EN" "http://www.w3.org/Graphics/SVG/1.1/DTD/svg11.dtd">
<!-- Creator: CorelDRAW 2019 (64-Bit) -->
<svg xmlns="http://www.w3.org/2000/svg" xml:space="preserve" width="700mm" height="203.2mm" version="1.1" style="shape-rendering:geometricPrecision; text-rendering:geometricPrecision; image-rendering:optimizeQuality; fill-rule:evenodd; clip-rule:evenodd"
viewBox="0 0 70000 20320"
 xmlns:xlink="http://www.w3.org/1999/xlink"
 xmlns:xodm="http://www.corel.com/coreldraw/odm/2003">
 <defs>
  <style type="text/css">
   <![CDATA[
    .str0 {stroke:#373435;stroke-width:20;stroke-miterlimit:22.9256}
    .fil0 {fill:#4B4B4D}
    .fil1 {fill:#ffffff}
   ]]>
  </style>
 </defs>
 <g id="Capa_x0020_1">
  <metadata id="CorelCorpID_0Corel-Layer"/>
  <path class="fil0 str0" d="M33780.56 7274.88c1.98,1.97 3.96,3.95 9.89,9.89 5.94,5.93 15.83,15.83 39.57,28.69 23.74,12.86 61.33,28.68 81.11,52.42 19.79,23.74 21.76,55.4 46.49,74.19 24.73,18.79 72.21,24.73 124.64,31.65 52.43,6.93 109.8,14.84 145.41,22.75 35.61,7.92 49.46,15.83 67.26,21.77 17.81,5.93 39.57,9.89 64.3,8.9 24.73,-0.99 52.43,-6.92 84.08,-5.94 31.66,0.99 67.27,8.91 99.91,22.76 32.64,13.84 62.32,33.63 93.97,49.46 31.65,15.82 65.29,27.69 113.76,40.55 48.47,12.86 111.78,26.71 153.32,21.76 41.55,-4.94 61.33,-28.68 79.14,-45.5 17.8,-16.82 33.63,-26.71 47.48,-41.54 13.85,-14.84 25.71,-34.62 38.57,-50.45 12.86,-15.83 26.71,-27.7 35.61,-40.56 8.91,-12.86 12.86,-26.71 24.73,-35.61 11.88,-8.9 31.66,-12.86 44.52,-21.76 12.86,-8.9 18.79,-22.75 24.73,-41.55 5.93,-18.79 11.87,-42.53 22.75,-60.34 10.88,-17.8 26.7,-29.67 34.62,-43.52 7.91,-13.85 7.91,-29.68 3.96,-46.49 -3.96,-16.82 -11.87,-34.62 0.98,-42.54 12.86,-7.91 46.5,-5.93 71.23,-12.86 24.73,-6.92 40.55,-22.75 47.48,-42.53 6.92,-19.79 4.94,-43.53 4.94,-71.22 0,-27.7 1.98,-59.36 15.83,-76.17 13.85,-16.82 39.57,-18.8 53.42,-8.9 13.85,9.89 15.82,31.65 40.55,51.43 24.73,19.79 72.21,37.59 106.83,58.37 34.63,20.77 56.39,44.51 87.05,57.37 30.67,12.86 70.24,14.84 118.71,15.83 48.47,0.99 105.84,0.99 152.33,0.99 46.49,0 82.1,0 118.7,1.97 36.6,1.98 74.19,5.94 99.91,19.79 25.72,13.85 39.57,37.58 59.35,50.44 19.78,12.86 45.5,14.84 67.26,-1.97 21.77,-16.82 39.57,-52.43 53.42,-95.95 13.85,-43.53 23.74,-94.97 10.88,-122.66 -12.86,-27.7 -48.47,-31.66 -69.24,-48.47 -20.77,-16.82 -26.71,-46.49 -43.53,-64.3 -16.81,-17.8 -44.51,-23.74 -65.28,-38.58 -20.78,-14.84 -34.62,-38.58 -37.59,-60.34 -2.97,-21.76 4.94,-41.54 7.91,-60.34 2.97,-18.79 0.99,-36.6 19.78,-58.36 18.8,-21.76 58.37,-47.48 92,-68.25 33.63,-20.78 61.33,-36.6 80.12,-58.36 18.8,-21.77 28.69,-49.46 41.55,-79.14 12.86,-29.67 28.69,-61.33 34.62,-88.04 5.94,-26.71 1.98,-48.47 22.75,-69.24 20.77,-20.77 66.28,-40.56 103.86,-65.28 37.6,-24.73 67.27,-54.41 88.04,-98.92 20.78,-44.52 32.65,-103.87 43.53,-151.35 10.88,-47.48 20.77,-83.09 25.72,-116.72 4.94,-33.63 4.94,-65.29 2.96,-95.95 -1.97,-30.67 -5.93,-60.34 1.98,-89.03 7.92,-28.69 27.7,-56.38 35.61,-87.04 7.92,-30.67 3.96,-64.31 -2.97,-93.98 -6.92,-29.67 -16.81,-55.39 -35.61,-70.23 -18.79,-14.84 -46.49,-18.8 -76.16,-12.86 -29.68,5.94 -61.33,21.76 -91.01,45.5 -29.67,23.74 -57.37,55.4 -93.97,82.11 -36.6,26.7 -82.1,48.46 -111.78,61.32 -29.67,12.86 -43.52,16.82 -63.3,14.84 -19.79,-1.98 -45.51,-9.89 -82.11,-15.83 -36.6,-5.93 -84.08,-9.89 -112.77,-19.78 -28.68,-9.89 -38.57,-25.72 -66.76,-52.42 -28.19,-26.71 -74.68,-64.3 -102.87,-88.54 -28.19,-24.23 -38.09,-35.11 -53.91,-42.04 -15.83,-6.92 -37.59,-9.89 -57.38,3.47 -19.78,13.35 -37.58,43.03 -60.83,57.37 -23.25,14.34 -51.93,13.35 -76.67,-0.99 -24.72,-14.35 -45.49,-42.04 -66.76,-63.31 -21.27,-21.27 -43.03,-36.1 -63.81,-51.44 -20.77,-15.33 -40.55,-31.16 -57.86,-38.58 -17.31,-7.41 -32.15,-6.43 -38.58,3.47 -6.43,9.89 -4.45,28.68 -6.43,46.49 -1.98,17.8 -7.91,34.62 -26.21,42.04 -18.3,7.42 -48.97,5.44 -71.72,3.46 -22.75,-1.98 -37.59,-3.96 -58.85,-30.66 -21.27,-26.71 -48.97,-78.15 -69.74,-118.71 -20.78,-40.55 -34.62,-70.23 -44.02,-92.98 -9.4,-22.75 -14.35,-38.57 -20.28,-48.96 -5.94,-10.39 -12.86,-15.34 -25.72,-9.89 -12.86,5.44 -31.65,21.26 -53.16,34.37 -21.52,13.11 -45.76,23.49 -72.71,30.17 -26.96,6.67 -56.63,9.64 -90.51,13.35 -33.88,3.71 -71.97,8.16 -101.89,13.6 -29.92,5.44 -51.68,11.87 -72.21,18.55 -20.53,6.68 -39.81,13.6 -66.27,24.98 -26.46,11.37 -60.1,27.2 -91.75,42.78 -31.65,15.58 -61.33,30.91 -99.41,45.5 -38.08,14.59 -84.58,28.44 -123.65,38.33 -39.07,9.9 -70.73,15.83 -93.73,20.77 -23,4.95 -37.34,8.91 -50.45,12.86 -13.1,3.96 -24.98,7.92 -32.15,11.38 -7.17,3.46 -15.15,11.95 -15.89,17.88 -0.74,5.93 0.24,13.74 4.93,21.65 4.69,7.91 11.47,21.44 24.33,28.12 12.86,6.68 34.57,15.87 51.39,20.32 16.82,4.45 35.35,8.03 58.84,10.01 23.49,1.98 51.95,-0.4 79.64,4.05 27.69,4.45 46.37,6.92 61.45,19.78 15.08,12.86 29.36,25.08 36.28,42.64 6.92,17.56 15.33,34.38 26.45,51.44 11.13,17.06 24.98,34.37 36.36,49.46 11.38,15.08 20.28,27.95 24.73,40.07 4.45,12.11 4.45,23.48 0.99,45.74 -3.46,22.26 -10.39,55.4 -13.35,81.61 -2.97,26.21 -1.99,45.5 1.23,64.54 3.21,19.05 8.66,37.84 22.01,83.59 13.35,45.75 34.62,118.45 51.44,178.3 16.81,59.84 29.18,106.83 34.37,137.75 5.19,30.91 3.22,45.74 -4.45,61.57 -7.66,15.83 -21.02,32.64 -38.09,45.26 -17.06,12.61 -37.83,21.02 -71.71,27.2 -33.88,6.18 -80.86,10.14 -121.17,16.57 -40.31,6.43 -73.95,15.33 -106.84,27.7 -32.89,12.36 -65.03,28.19 -90.26,42.78 -25.23,14.59 -43.52,27.94 -67.26,48.72 -23.74,20.77 -52.93,48.96 -86.06,71.96 -33.14,23 -70.24,40.8 -97.44,52.43 -27.2,11.62 -44.51,17.06 -58.11,28.19 -13.6,11.13 -23.49,27.94 -31.4,51.19 -7.92,23.25 -13.85,52.92 -27.7,79.14 -13.85,26.21 -35.61,48.96 -53.91,67.75 -18.3,18.8 -33.14,33.63 -52.92,50.45 -19.78,16.82 -44.52,35.61 -59.35,57.87 -14.84,22.26 -19.79,47.97 -11.38,75.67 8.41,27.7 30.17,57.38 51.93,87.05 8.16,10.88 16.32,21.76 25.22,31.9 8.9,10.13 18.54,19.53 28.19,28.93z"/>
  <path class="fil0 str0" d="M32926.54 6509.09c5.94,-4.95 9.89,-14.84 17.8,-22.75 7.92,-7.91 19.79,-13.85 26.71,-27.7 6.93,-13.85 8.91,-35.61 9.89,-60.34 0.99,-24.73 0.99,-52.43 9.9,-67.26 8.9,-14.84 26.7,-16.82 39.56,-27.7 12.86,-10.88 20.77,-30.66 27.7,-52.43 6.92,-21.76 12.86,-45.5 33.63,-55.39 20.77,-9.89 56.39,-5.94 83.09,-12.86 26.71,-6.93 44.52,-24.73 64.3,-45.5 19.79,-20.78 41.55,-44.52 75.18,-52.43 33.63,-7.91 79.13,0 106.83,-5.94 27.7,-5.93 37.59,-25.71 69.24,-39.56 31.66,-13.85 85.07,-21.76 121.67,-26.71 36.6,-4.94 56.39,-6.92 79.13,-8.9 22.76,-1.98 48.48,-3.96 71.23,6.92 22.75,10.88 42.53,34.62 70.23,52.43 27.7,17.8 63.31,29.67 85.07,56.38 21.76,26.71 29.68,68.26 25.72,107.82 -3.96,39.57 -19.78,77.16 -18.79,114.75 0.99,37.59 18.79,75.18 28.68,118.7 9.89,43.52 11.87,92.98 3.96,112.77 -7.92,19.78 -25.72,9.89 -41.55,28.68 -15.82,18.8 -29.67,66.28 -15.83,91.01 13.85,24.73 55.4,26.71 102.88,3.96 47.48,-22.75 100.9,-70.24 153.32,-111.78 52.43,-41.55 103.87,-77.16 162.23,-97.93 58.36,-20.78 123.65,-26.71 181.02,-34.62 57.37,-7.92 106.83,-17.81 129.58,-39.57 22.75,-21.76 18.8,-55.4 4.95,-116.72 -13.85,-61.33 -37.59,-150.36 -59.35,-220.59 -21.76,-70.23 -41.55,-121.67 -40.56,-174.1 0.99,-52.43 22.75,-105.84 15.83,-146.4 -6.93,-40.55 -42.54,-68.25 -66.28,-102.87 -23.74,-34.62 -35.61,-76.17 -64.3,-94.96 -28.68,-18.8 -74.18,-14.84 -118.69,-17.81 -44.52,-2.97 -88.04,-12.86 -119.7,-31.65 -31.65,-18.8 -51.43,-46.5 -41.54,-68.26 9.89,-21.76 49.46,-37.58 93.97,-47.48 44.51,-9.89 93.97,-13.85 143.43,-26.71 49.46,-12.86 98.92,-34.62 165.19,-66.27 66.28,-31.65 149.37,-73.2 231.47,-92.98 82.1,-19.79 163.22,-17.81 215.65,-30.67 52.42,-12.86 76.16,-40.56 90.01,-54.4 13.85,-13.84 38.21,-17.7 35.77,-79.9 -2.44,-62.2 -14.02,-206.97 -15.99,-309.84 -1.97,-102.87 -5.93,-172.12 3.96,-216.63 9.89,-44.52 33.63,-64.3 62.32,-83.1 28.69,-18.79 62.32,-36.59 92.98,-67.26 30.67,-30.66 58.37,-74.19 65.29,-122.66 6.92,-48.47 -6.92,-101.89 5.93,-145.41 12.86,-43.52 52.43,-77.16 79.14,-126.62 26.71,-49.45 40.55,-114.74 73.2,-181.01 32.64,-66.28 84.08,-133.54 89.03,-182.01 4.94,-48.47 -36.6,-78.15 -88.04,-114.75 -51.44,-36.6 -112.77,-80.13 -142.45,-93.97 -29.67,-13.85 -27.69,1.98 -47.48,13.85 -19.78,11.87 -61.33,19.78 -74.19,38.57 -12.85,18.8 2.97,48.47 -15.82,81.12 -18.8,32.64 -72.21,68.25 -141.46,96.94 -69.24,28.68 -154.31,50.45 -220.58,45.5 -66.28,-4.95 -113.76,-36.6 -157.28,-42.53 -43.52,-5.94 -83.09,13.84 -92.99,38.57 -9.89,24.73 9.9,54.41 14.84,88.04 4.95,33.63 -4.94,71.22 3.96,105.85 8.9,34.62 36.6,66.27 40.56,99.9 3.95,33.63 -15.83,69.25 -16.82,103.87 -0.99,34.62 16.82,68.25 -39.57,87.05 -56.38,18.79 -186.95,22.75 -257.19,52.42 -70.23,29.68 -80.12,85.07 -103.86,136.51 -23.74,51.44 -61.33,98.92 -107.82,120.68 -46.49,21.76 -101.89,17.8 -176.08,0.99 -74.18,-16.82 -167.17,-46.5 -224.54,-90.02 -57.37,-43.52 -79.13,-100.9 -89.03,-170.14 -9.89,-69.24 -7.91,-150.35 5.94,-207.73 13.85,-57.37 39.57,-91 66.27,-128.59 26.71,-37.59 54.41,-79.13 66.28,-119.69 11.87,-40.56 7.91,-80.13 19.78,-108.81 11.87,-28.69 39.57,-46.49 72.21,-62.32 32.65,-15.83 70.24,-29.68 104.86,-53.42 34.62,-23.74 66.27,-57.37 105.84,-101.88 39.57,-44.52 87.05,-99.91 121.67,-146.4 34.62,-46.49 56.38,-84.08 66.27,-120.68 9.9,-36.6 7.92,-72.21 -12.86,-100.9 -20.77,-28.69 -60.34,-50.45 -102.87,-69.24 -42.54,-18.8 -88.04,-34.62 -123.65,-32.64 -35.61,1.97 -61.33,21.76 -89.03,60.34 -27.69,38.57 -57.37,95.95 -80.12,114.74 -22.75,18.79 -38.57,-0.99 -52.42,-26.7 -13.85,-25.73 -25.72,-57.38 -20.78,-96.95 4.95,-39.56 26.71,-87.04 30.67,-119.69 3.95,-32.64 -9.89,-50.44 -34.63,-61.33 -24.72,-10.88 -60.34,-14.83 -92.98,-0.98 -32.64,13.84 -62.32,45.5 -97.93,69.24 -35.61,23.74 -77.15,39.56 -100.9,30.66 -23.73,-8.9 -29.67,-42.54 -38.57,-72.21 -8.91,-29.68 -20.77,-55.39 -36.6,-67.26 -15.83,-11.88 -35.61,-9.9 -52.43,16.81 -16.81,26.71 -30.66,78.15 -55.39,131.56 -24.73,53.42 -60.34,108.81 -76.17,173.11 -15.82,64.3 -11.87,137.49 -3.96,196.85 7.92,59.35 19.79,104.85 35.62,147.39 15.82,42.53 35.6,82.1 56.38,124.63 20.77,42.54 42.53,88.04 44.51,134.53 1.98,46.49 -15.83,93.98 -15.83,143.44 0,49.45 17.81,100.89 18.8,158.26 0.99,57.38 -14.84,120.69 -29.68,167.18 -14.84,46.49 -28.68,76.16 -46.49,100.9 -17.81,24.72 -39.57,44.51 -60.34,72.2 -20.77,27.7 -40.56,63.31 -41.54,104.86 -0.99,41.54 16.81,89.02 27.69,130.57 10.88,41.54 14.84,77.15 -3.96,100.9 -18.79,23.74 -60.34,35.61 -107.82,27.69 -47.48,-7.91 -100.89,-35.61 -162.22,-73.2 -61.33,-37.59 -130.57,-85.07 -184.98,-108.81 -54.4,-23.74 -93.97,-23.74 -139.47,6.93 -45.51,30.66 -96.94,91.99 -139.48,145.4 -42.53,53.42 -76.17,98.93 -123.65,130.58 -47.48,31.65 -108.81,49.46 -171.13,42.54 -62.31,-6.93 -125.62,-38.58 -169.15,-44.52 -43.52,-5.93 -67.26,13.85 -74.18,108.81 -6.93,94.96 2.96,265.1 68.25,452.06 65.29,186.95 185.97,390.73 335.33,583.62 149.37,192.89 327.42,374.89 505.48,556.91 5.44,5.93 10.88,11.87 20.77,11.87 11.68,0 51.19,-9.2 60.34,-16.82z"/>
  <path class="fil1 str0" d="M24051.48 10223.48l2.91 3465.01 1010.88 0 -1.99 -3398.7c0,-620.62 -287.6,-930.91 -862.84,-930.91l-3232.72 -1.66c-525.25,-1.67 -812.86,308.63 -812.86,929.24l-1.99 3398.7 998.35 0c0.32,-381.48 8.85,-3449.47 8.35,-3500.71 10.64,-262.42 224.64,-527.26 508.49,-527.26 283.84,0 513.94,263.18 513.94,588.75l1.3 3439.37 953.35 3.18 -4.01 -3461.72c-0.01,-317.25 205.68,-571.03 459.41,-571.03 253.74,0 459.43,253.78 459.43,567.74z"/>
  <path class="fil1 str0" d="M27345.45 10171.03c0,-288.33 230.7,-500.97 515.28,-500.97 284.58,0 515.28,212.64 515.28,500.39l0 1883.76 -743.55 0 0 323.15 743.55 0 0 1316.91 933.06 0 -1.05 -3429.85c-2.49,-620.89 -209.87,-886.22 -623.24,-886.22l-1664.78 0c-416.19,0 -625,266.39 -625.36,889.43l1.07 3426.64 949.74 -3.21 0 -3520.03z"/>
  <path class="fil1 str0" d="M32262.08 13688.76l700.21 0c421.15,0 632.45,-310.74 633.87,-932.25l-2.15 -2471.18c0,-621.48 -210.57,-932.2 -631.72,-932.2l-700.21 0 0 316.04c226.83,45.9 393.49,213.33 393.49,445.79l0 2804.46c0,232.11 -166.94,405.84 -393.49,454.03l0 315.31z"/>
  <path class="fil1 str0" d="M31978.83 13688.76l-1338.5 0 -2.21 -4335.63 1340.71 0 0 321.65c-214.51,52.57 -371.01,214.91 -371.01,438.53l0 2806.22c0,223.97 156.27,393.49 371.01,448.39l0 320.84z"/>
  <path class="fil1 str0" d="M36100.24 9898.77l1164.03 0c359.79,-31.53 681.25,-153.59 742.07,-539.02l-2976.13 -1.67 1.59 4327.08 2972.04 -1.4c-85.85,-340.55 -285.08,-518.41 -746.38,-526.15l-1157.06 2.22 -0.16 -1566.79 1159.3 0c373.53,-6.92 638.31,-109.36 744.3,-534.04l-1903.6 0 0 -1160.23z"/>
  <path class="fil1 str0" d="M42425.2 13680.01l-2271.62 5.15c-504.5,0 -756.72,-308.88 -756.72,-926.59l-2.63 -3400.49 1030.56 0 0 3669.97c0,102.15 42.16,153.88 125.69,153.88l1152.05 -3.07c305.35,-1.63 640.96,17.21 722.67,501.15z"/>
  <path class="fil1 str0" d="M46035.07 9358.08c-59.22,282.48 -238.74,486.54 -584.21,527.43l-591.57 0 -2.95 3799.65 -1098.02 -3.16 -2.91 -3796.49 -551.48 1.42c-226.88,-6.13 -550.59,-243.91 -613.18,-528.79l3444.32 -0.06z"/>
  <path class="fil1 str0" d="M48380.87 13690.36l-774.31 1.35c-458.92,0 -688.36,-309.36 -688.36,-928l-2.22 -2489.48c1.41,-606.84 231.66,-916.15 690.58,-916.15l774.31 0 0 302.36c-219.83,50.22 -381.42,215.52 -381.42,444.6l0 2829.29c0,229.44 161.33,402.21 381.42,454.66l0 301.37z"/>
  <path class="fil1 str0" d="M48664.12 13689.87l778.15 -1.37c457.38,0 686.87,-310.36 688.41,-931.12l-2.33 -2468.21c0,-620.72 -228.7,-931.09 -686.08,-931.09l-778.15 0 0 301.4c221.51,49.25 383.08,216.46 383.08,447.24l0 2827.48c0,230.44 -161.84,403.78 -383.08,455.44l0 300.23z"/>
  <path class="fil1 str0" d="M50212.39 9499.66c60.07,-54.2 144.2,-132.41 203.19,-207.16 59.66,-75.57 118.78,-172.41 148.13,-290.64 29.33,-118.25 28.91,-257.93 -15.06,-381.93 -43.95,-123.99 -131.43,-232.34 -255.72,-319.61 -250.46,-175.91 -492.9,-228.96 -795.45,-229.06 -4848.55,-1.83 -9697.06,-3.71 -14545.61,-5.57l-14799 -5.66 0 392.19 27560.06 -1.01c132.75,5.32 257.98,-0.26 383.62,4.54 244.07,1.2 589.33,19.92 798.63,36.74 209.3,16.82 323.39,44.5 414.35,79.7 90.98,35.16 158.88,77.93 221.35,149.59 62.46,71.63 119.5,172.16 141.98,243.88 21.9,69.88 10.99,112.36 -0.75,154.14 266.63,35.99 396.64,133.89 540.28,379.86z"/>
  <path class="fil1 str0" d="M21458.24 14873.51c-269.32,-5.71 -538.62,-11.45 -719.05,-29.37 -180.46,-17.97 -272,-48.14 -360.85,-93.39 -88.91,-45.26 -175.06,-105.57 -231.63,-198.59 -56.54,-93.02 -83.48,-218.7 -80.78,-319.28 2.69,-100.55 35.03,-175.97 67.33,-251.4l926.2 -0.28c-15.47,24.74 -45.18,68.46 -58.1,89.52 -16.6,27.07 -30.63,50.09 -46.55,78.53 -15.48,27.62 -28.24,59.1 -30.93,95.23 -2.72,36.13 4.7,77 21.51,111.25 16.84,34.25 43.09,61.9 95.99,79.37 52.85,17.44 132.31,24.71 250.14,28.36 117.84,3.63 91.33,3.63 247.51,3.63l28591.04 0 0 406.42 -28671.83 0z"/>
  <path class="fil1 str0" d="M30758.34 16478.89l-244.22 0 -156.09 -258.9c-32.01,-53.5 -58.32,-87.92 -78.92,-103.26 -20.61,-15.56 -42.31,-23.24 -65.55,-23.24l-64.24 0 0 385.4 -211.99 0 0 -994.85 348.79 0c236.77,0 355.15,89.88 355.15,269.65 0,67.74 -19.73,125.83 -59.41,174.07 -39.46,48.44 -94.05,82.43 -163.33,102.16l0 2.62c45.82,15.35 96.46,65.99 152.15,151.49l187.66 294.86zm-609.02 -833.72l0 286.53 104.14 0c49.54,0 89.66,-14.47 119.7,-43.41 30.25,-28.93 45.37,-64.89 45.37,-108.29 0,-89.89 -53.71,-134.83 -161.35,-134.83l-107.86 0zm1588.15 833.72l-589.06 0 0 -994.85 565.82 0 0 173.41 -353.83 0 0 234.35 328.84 0 0 172.75 -328.84 0 0 240.94 377.07 0 0 173.4zm1410.47 0l0 -603.75c0,-55.68 2.63,-125.62 8.33,-210.02l-5.26 0c-12.71,63.8 -23.02,106.33 -30.69,127.81l-245.32 685.96 -169.02 0 -248.6 -679.6c-5.92,-16.22 -16.44,-60.95 -31.35,-134.17l-5.92 0c5.7,83.53 8.33,167.27 8.33,251.24l0 562.53 -191.39 0 0 -994.85 308.46 0 214.4 601.12c17.98,49.76 30.26,96.46 36.61,140.09l4.6 0c13.16,-54.37 26.97,-101.51 41,-141.41l215.28 -599.8 299.9 0 0 994.85 -209.36 0zm695.77 -484.27c0,-155.87 45.6,-282.8 136.58,-380.58 90.98,-97.77 211.12,-146.66 360.63,-146.66 142.06,0 256.5,47.35 343.31,141.84 86.59,94.7 130,216.38 130,364.79 0,155 -45.16,280.83 -135.26,377.29 -90.1,96.68 -208.05,144.91 -354.05,144.91 -142.72,0 -258.47,-46.7 -347.48,-140.3 -89.22,-93.62 -133.73,-213.97 -133.73,-361.29zm222.96 -11.62c0,96.9 23.23,175.82 69.93,237.42 46.7,61.39 110.71,92.08 192.04,92.08 83.09,0 147.76,-29.38 194.02,-88.35 46.26,-58.75 69.28,-137.89 69.28,-237.2 0,-103.7 -22.37,-185.47 -67.31,-245.76 -44.94,-60.07 -108.3,-90.1 -190.07,-90.1 -83.09,0 -148.64,30.69 -196.43,92.51 -47.57,61.61 -71.46,141.41 -71.46,239.4zm1728.53 495.89l-584.02 0 0 -994.85 212 0 0 821.45 372.02 0 0 173.4zm359.41 -484.27c0,-155.87 45.6,-282.8 136.58,-380.58 90.98,-97.77 211.12,-146.66 360.63,-146.66 142.06,0 256.5,47.35 343.31,141.84 86.59,94.7 130,216.38 130,364.79 0,155 -45.16,280.83 -135.48,377.73 -5.7,5.92 -11.18,11.84 -16.66,17.32l252.99 244 -314.16 0 -132.19 -134.82c-44.5,12.05 -92.51,17.97 -143.81,17.97 -142.72,0 -258.47,-46.7 -347.48,-140.3 -89.22,-93.62 -133.73,-213.97 -133.73,-361.29zm222.96 -11.62c0,96.9 23.24,175.82 69.93,237.42 46.7,61.39 110.71,92.08 192.04,92.08 83.09,0 147.76,-29.38 194.02,-88.35 46.26,-58.75 69.28,-137.89 69.28,-237.2 0,-103.7 -22.37,-185.47 -67.31,-245.76 -44.94,-60.07 -108.29,-90.1 -190.07,-90.1 -83.09,0 -148.63,30.69 -196.42,92.51 -47.58,61.61 -71.47,141.41 -71.47,239.4zm2035.03 68.18c0,296.61 -137.9,445.03 -413.68,445.03 -266.36,0 -399.44,-144.47 -399.44,-433.41l0 -578.76 212.43 0 0 579.85c0,165.74 65.34,248.61 195.99,248.61 128.47,0 192.7,-79.8 192.7,-239.62l0 -588.84 212 0 0 567.14zm1110.02 427.71l-589.06 0 0 -994.85 565.82 0 0 173.41 -353.83 0 0 234.35 328.84 0 0 172.75 -328.84 0 0 240.94 377.07 0 0 173.4zm393.42 -250.57c80.24,66.42 171.21,99.52 273.16,99.52 57.65,0 101.06,-9.86 130.22,-29.81 29.15,-19.95 43.62,-45.38 43.62,-76.73 0,-26.96 -11.4,-52.39 -34.64,-76.29 -23.02,-24.12 -84.18,-56.56 -183.05,-97.77 -155.43,-65.99 -233.04,-161.8 -233.04,-287.63 0,-92.51 35.3,-164.42 105.67,-215.5 70.37,-51.3 163.54,-76.73 279.73,-76.73 97.12,0 178.67,12.49 244.66,37.92l0 199.06c-66.87,-45.38 -144.91,-68.18 -234.35,-68.18 -52.4,0 -94.05,9.65 -125.4,28.72 -31.13,19.07 -46.92,44.51 -46.92,76.73 0,25.65 10.75,49.33 32.23,70.81 21.48,21.71 74.32,50.86 158.72,87.69 98.87,42.53 166.83,87.26 203.88,134.39 37.05,46.91 55.47,103.04 55.47,168.15 0,95.58 -33.77,168.36 -101.5,218.34 -67.53,50.21 -163.77,75.2 -288.29,75.2 -114,0 -207.39,-18.41 -280.17,-55.25l0 -212.64z"/>
  <path class="fil1 str0" d="M34541.42 1246.55c-10797.28,0 -19550.2,4729.87 -19550.2,10564.46 0,2654.26 1811.42,5079.89 4802.66,6935.61 110.22,66.66 220.43,133.32 372.98,221.68 152.54,88.36 347.41,198.42 463.24,243.17 115.83,44.74 152.61,24.17 129.62,-24.59 -23,-48.77 -105.77,-125.72 -243.04,-234.13 -22.6,-17.84 -46.67,-36.53 -81.41,-63.17 -2441.49,-1734.01 -3885.15,-3888.94 -3885.15,-6226.08 0,-5676.05 8515.09,-10277.41 19018.98,-10277.41 5773.96,0 12243.46,1287.5 16631.27,5286.61 21.19,19.31 42.45,38.4 64.36,57.6 79.1,69.34 166.6,140.2 222.21,153.87 55.62,13.66 79.36,-29.86 41.08,-124.38 -38.27,-94.51 -138.56,-240.01 -259.96,-390.72 -3657.27,-4540.42 -12252.34,-6122.52 -17726.64,-6122.52z"/>
 </g>
</svg>
